<svg width="38" height="41" viewBox="0 0 38 41" fill="none" xmlns="http://www.w3.org/2000/svg">
<path d="M21.6399 0.946913C19.782 -0.109899 17.5049 -0.109898 15.6471 0.946914L3.06373 8.10488C1.16977 9.18224 0 11.1935 0 13.3724V27.5334C0 29.7123 1.16977 31.7235 3.06373 32.8009L15.6471 39.9589C17.5049 41.0157 19.7821 41.0157 21.6399 39.9589L34.2232 32.8009C36.1172 31.7235 37.287 29.7123 37.287 27.5334V13.3724C37.287 11.1935 36.1172 9.18224 34.2232 8.10488L21.6399 0.946913Z" fill="#00A88E"/>
<path d="M27.9648 9.84766H9.32129V11.1733H27.9648V9.84766Z" fill="#4D4D4F"/>
<path d="M21.9719 24.4299C21.9719 23.7008 20.4804 23.1042 18.6427 23.1042C16.805 23.1042 15.3135 23.7008 15.3135 24.4299C15.3135 25.159 16.805 25.7556 18.6427 25.7556C20.4804 25.7556 21.9719 25.159 21.9719 24.4299Z" fill="#4D4D4F"/>
<path d="M27.6318 11.1733H8.98828V24.4299H27.6318V11.1733Z" fill="#6D6E71"/>
<path d="M26.6335 12.499H10.6533V23.1043H26.6335V12.499Z" fill="#00B6B5"/>
<path d="M23.2206 31.0581H8.98828V31.8156H23.2206V31.0581Z" fill="#6D6E71"/>
<path d="M23.2206 26.5132H8.98828V31.0583H23.2206V26.5132Z" fill="#4D4D4F"/>
<rect x="23.9697" y="27.2708" width="3.74534" height="4.5451" rx="1.87267" fill="#6D6E71"/>
<rect x="23.9697" y="26.5132" width="3.74534" height="4.5451" rx="1.87267" fill="#4D4D4F"/>
<path d="M18.6428 13.8247L15.6465 15.495V18.8092C15.6465 20.8706 18.6428 21.8515 18.6428 21.8515C18.6428 21.8515 21.639 20.8706 21.639 18.8092V15.495L18.6428 13.8247ZM20.9732 18.8025C20.9732 20.0685 19.2487 20.8838 18.6428 21.1357C18.0368 20.8838 16.3123 20.0685 16.3123 18.8025V15.8861L18.6428 14.5604L20.9732 15.8861V18.8025Z" fill="white"/>
</svg>
