<svg width="38" height="41" viewBox="0 0 38 41" fill="none" xmlns="http://www.w3.org/2000/svg">
<path d="M6.40023e-07 12.4194V28.4855C-0.000419538 29.2524 0.206054 30.0058 0.598468 30.6692C0.990881 31.3326 1.55527 31.8824 2.23435 32.2627L16.6382 40.3324C17.3082 40.7079 18.0665 40.9054 18.8382 40.9054C19.6099 40.9054 20.3683 40.7079 21.0383 40.3324L35.4428 32.2627C36.1217 31.8822 36.6858 31.3323 37.0781 30.669C37.4704 30.0056 37.6768 29.2523 37.6765 28.4855V12.4194C37.6766 11.6527 37.4701 10.8996 37.0779 10.2364C36.6856 9.57318 36.1215 9.02344 35.4428 8.64288L21.0383 0.572545C20.3683 0.197033 19.6099 -0.000488281 18.8382 -0.000488281C18.0665 -0.000488281 17.3082 0.197033 16.6382 0.572545L2.23435 8.64288C1.55541 9.02325 0.991128 9.57293 0.598728 10.2362C0.206327 10.8994 -0.000231929 11.6526 6.40023e-07 12.4194Z" fill="#00A88E"/>
<path d="M28.2572 9.89648H9.41895V10.5563H28.2572V9.89648Z" fill="#4D4D4F"/>
<path d="M22.2026 24.4116C22.2026 23.6858 20.6962 23.092 18.8386 23.092C16.981 23.092 15.4746 23.6858 15.4746 24.4116C15.4746 25.1373 16.9803 25.7311 18.8386 25.7311C20.6968 25.7311 22.2026 25.1373 22.2026 24.4116Z" fill="#4D4D4F"/>
<path d="M28.2572 10.5564H9.41895V24.4116H28.2572V10.5564Z" fill="#6D6E71"/>
<path d="M26.9117 11.876H10.7646V23.0921H26.9117V11.876Z" fill="#44ADE2"/>
<path d="M28.2571 30.3496H20.1836V31.0094H28.2571V30.3496Z" fill="#6D6E71"/>
<path d="M28.2571 27.0508H20.1836V30.3496H28.2571V27.0508Z" fill="#4D4D4F"/>
<path d="M27.5844 27.7104H20.8564V29.6898H27.5844V27.7104Z" fill="#A5CF4C"/>
<path d="M18.8381 13.4939L15.8105 15.1578V18.4494C15.8105 20.4947 18.8381 21.4752 18.8381 21.4752C18.8381 21.4752 21.8657 20.4974 21.8657 18.4494V15.1578L18.8381 13.4939ZM21.1929 18.4494C21.1929 19.703 19.4524 20.5205 18.8381 20.7685C18.2232 20.5205 16.4833 19.7063 16.4833 18.4494V15.5464L18.8381 14.2513L21.1929 15.5451V18.4494Z" fill="white"/>
<path d="M18.8381 19.7935H9.41895V31.0096H18.8381V19.7935Z" fill="#6D6E71"/>
<path d="M18.8381 19.1333H9.41895V19.7931H18.8381V19.1333Z" fill="#4D4D4F"/>
<path d="M18.1653 20.4529H10.0918V29.6897H18.1653V20.4529Z" fill="#FDB924"/>
<path d="M14.1282 21.8708C13.7351 21.8718 13.3548 22.0076 13.0533 22.2549C12.7517 22.5022 12.548 22.8452 12.4775 23.2244C12.407 23.6036 12.4741 23.9951 12.6673 24.3308C12.8604 24.6665 13.1674 24.9253 13.5348 25.0622V25.7523L13.8315 26.0433V26.2412L13.5348 26.5315V26.7294L13.8315 27.0197V27.2176L13.5348 27.5086V27.9493L14.1282 28.2792L14.7216 27.9493V25.0622C15.0891 24.9253 15.396 24.6665 15.5891 24.3308C15.7823 23.9951 15.8494 23.6036 15.7789 23.2244C15.7084 22.8452 15.5047 22.5022 15.2031 22.2549C14.9016 22.0076 14.5213 21.8718 14.1282 21.8708ZM14.326 27.5957C14.326 27.6214 14.3156 27.6461 14.297 27.6643C14.2785 27.6825 14.2533 27.6927 14.2271 27.6927C14.2009 27.6927 14.1757 27.6825 14.1572 27.6643C14.1386 27.6461 14.1282 27.6214 14.1282 27.5957V25.1697C14.1943 25.1696 14.2604 25.1654 14.326 25.1572V27.5957ZM14.1282 23.2293C14.05 23.2293 13.9735 23.2066 13.9084 23.1639C13.8434 23.1213 13.7927 23.0607 13.7627 22.9898C13.7328 22.9189 13.7249 22.8409 13.7402 22.7657C13.7555 22.6904 13.7931 22.6213 13.8485 22.5671C13.9038 22.5128 13.9743 22.4759 14.051 22.4609C14.1278 22.4459 14.2073 22.4536 14.2796 22.483C14.3519 22.5123 14.4137 22.562 14.4571 22.6258C14.5006 22.6896 14.5238 22.7646 14.5238 22.8414C14.5238 22.9443 14.4821 23.0429 14.4079 23.1157C14.3337 23.1884 14.2331 23.2293 14.1282 23.2293Z" fill="white"/>
</svg>
