<svg width="38" height="41" viewBox="0 0 38 41" fill="none" xmlns="http://www.w3.org/2000/svg">
<path d="M21.8248 0.913647C19.98 -0.124045 17.7275 -0.124046 15.8827 0.913646L3.08909 8.11005C1.18089 9.18341 0 11.2025 0 13.3919V27.5139C0 29.7032 1.18089 31.7224 3.08908 32.7957L15.8827 39.9921C17.7275 41.0298 19.98 41.0298 21.8248 39.9921L34.6184 32.7957C36.5266 31.7224 37.7075 29.7032 37.7075 27.5139V13.3919C37.7075 11.2026 36.5266 9.18341 34.6184 8.11005L21.8248 0.913647Z" fill="#00A88E"/>
<path d="M28.2805 9.84766H9.42676V11.1733H28.2805V9.84766Z" fill="#4D4D4F"/>
<path d="M22.2208 24.4299C22.2208 23.7008 20.7125 23.1042 18.854 23.1042C16.9956 23.1042 15.4873 23.7008 15.4873 24.4299C15.4873 25.159 16.9956 25.7556 18.854 25.7556C20.7125 25.7556 22.2208 25.159 22.2208 24.4299Z" fill="#4D4D4F"/>
<path d="M28.2805 11.1733H9.42676V24.4299H28.2805V11.1733Z" fill="#6D6E71"/>
<path d="M26.9338 12.499H10.7734V23.1043H26.9338V12.499Z" fill="#44ADE2"/>
<path d="M28.2804 30.3955H20.2002V31.0583H28.2804V30.3955Z" fill="#6D6E71"/>
<path d="M28.2804 27.0813H20.2002V30.3954H28.2804V27.0813Z" fill="#4D4D4F"/>
<path d="M26.9327 27.7441H21.5459V29.7326H26.9327V27.7441Z" fill="#A5CF4C"/>
<path d="M18.8533 13.8247L15.8232 15.495V18.8092C15.8232 20.8706 18.8533 21.8515 18.8533 21.8515C18.8533 21.8515 21.8834 20.8706 21.8834 18.8092V15.495L18.8533 13.8247ZM21.21 18.8025C21.21 20.0685 19.4661 20.8838 18.8533 21.1357C18.2406 20.8838 16.4966 20.0685 16.4966 18.8025V15.8861L18.8533 14.5604L21.21 15.8861V18.8025Z" fill="white"/>
<path d="M18.8536 20.4529H9.42676V31.0581H18.8536V20.4529Z" fill="#6D6E71"/>
<path d="M18.8536 19.79H9.42676V20.4529H18.8536V19.79Z" fill="#4D4D4F"/>
<path d="M18.1808 21.1157H10.1006V29.7325H18.1808V21.1157Z" fill="#F04E45"/>
<path d="M14.1392 22.7532L12.1191 23.8667V26.0739C12.1191 27.4394 14.1392 28.0956 14.1392 28.0956C14.1392 28.0956 16.1592 27.4327 16.1592 26.0739V23.8667L14.1392 22.7532ZM15.4859 26.0673C15.4859 26.6837 14.6375 27.1676 14.1392 27.393C13.6409 27.1809 12.7925 26.697 12.7925 26.0673V24.2578L14.1392 23.5088L15.4859 24.2578V26.0673Z" fill="white"/>
</svg>
